<?xml version="1.0" standalone="no"?>
<!DOCTYPE svg PUBLIC "-//W3C//DTD SVG 20010904//EN"
 "http://www.w3.org/TR/2001/REC-SVG-20010904/DTD/svg10.dtd">
<svg version="1.0" xmlns="http://www.w3.org/2000/svg"
 width="140.000000pt" height="139.000000pt" viewBox="0 0 140.000000 139.000000"
 preserveAspectRatio="xMidYMid meet">

<g transform="translate(0.000000,139.000000) scale(0.100000,-0.100000)"
fill="#000000" stroke="none">
<path d="M965 914 c-33 -20 -114 -67 -179 -105 -66 -38 -114 -69 -107 -69 13
0 79 35 171 90 25 15 78 46 118 70 39 23 72 44 72 46 0 10 -19 1 -75 -32z"/>
<path d="M506 567 c-11 -8 -17 -19 -15 -24 2 -6 12 0 22 13 20 27 19 30 -7 11z"/>
</g>
</svg>
